<svg width="152" height="20" viewBox="0 0 152 20" fill="none" xmlns="http://www.w3.org/2000/svg">
<path d="M12.8312 2.43433C13.8238 2.43719 14.7749 2.81788 15.4768 3.49328C16.1786 4.16868 16.5743 5.0839 16.5772 6.03905V13.2477C16.5743 14.2029 16.1786 15.1181 15.4768 15.7935C14.7749 16.4689 13.8238 16.8496 12.8312 16.8524H5.33992C4.34732 16.8496 3.39622 16.4689 2.69434 15.7935C1.99247 15.1181 1.59684 14.2029 1.59388 13.2477V6.03905C1.59684 5.0839 1.99247 4.16868 2.69434 3.49328C3.39622 2.81788 4.34732 2.43719 5.33992 2.43433H12.8312ZM12.8312 0.992676H5.33992C2.45554 0.992676 0.0957031 3.26349 0.0957031 6.03905V13.2477C0.0957031 16.0233 2.45554 18.2941 5.33992 18.2941H12.8312C15.7156 18.2941 18.0754 16.0233 18.0754 13.2477V6.03905C18.0754 3.26349 15.7156 0.992676 12.8312 0.992676Z" fill="white"/>
<path d="M13.9551 6.03963C13.7329 6.03963 13.5156 5.97621 13.3308 5.85739C13.146 5.73857 13.002 5.56969 12.9169 5.3721C12.8319 5.17451 12.8096 4.95709 12.853 4.74733C12.8963 4.53757 13.0034 4.3449 13.1605 4.19367C13.3177 4.04244 13.5179 3.93945 13.7359 3.89773C13.9539 3.85601 14.1798 3.87742 14.3852 3.95927C14.5905 4.04111 14.766 4.17971 14.8895 4.35753C15.0129 4.53536 15.0788 4.74442 15.0788 4.95829C15.0792 5.10038 15.0503 5.24113 14.994 5.37246C14.9376 5.5038 14.8548 5.62312 14.7504 5.7236C14.646 5.82407 14.522 5.90371 14.3855 5.95794C14.249 6.01218 14.1028 6.03994 13.9551 6.03963ZM9.08575 6.76027C9.67845 6.76027 10.2578 6.92939 10.7507 7.24626C11.2435 7.56312 11.6276 8.0135 11.8544 8.54042C12.0812 9.06735 12.1405 9.64717 12.0249 10.2065C11.9093 10.7659 11.6239 11.2798 11.2048 11.6831C10.7857 12.0863 10.2517 12.361 9.67039 12.4723C9.08907 12.5835 8.48653 12.5264 7.93894 12.3082C7.39136 12.0899 6.92333 11.7203 6.59404 11.2461C6.26475 10.7718 6.089 10.2143 6.089 9.64397C6.08985 8.87941 6.40585 8.14641 6.96766 7.60579C7.52948 7.06517 8.29122 6.76109 9.08575 6.76027ZM9.08575 5.31861C8.19674 5.31861 7.32769 5.57229 6.5885 6.04756C5.84931 6.52284 5.27319 7.19837 4.93298 7.98872C4.59277 8.77908 4.50375 9.64877 4.67719 10.4878C4.85063 11.3268 5.27873 12.0975 5.90736 12.7025C6.53598 13.3074 7.3369 13.7193 8.20883 13.8862C9.08076 14.0531 9.98454 13.9675 10.8059 13.6401C11.6272 13.3127 12.3292 12.7583 12.8231 12.047C13.3171 11.3357 13.5807 10.4994 13.5807 9.64397C13.5807 8.49681 13.1071 7.39664 12.2641 6.58548C11.4212 5.77432 10.2779 5.31861 9.08575 5.31861Z" fill="white"/>
<path fill-rule="evenodd" clip-rule="evenodd" d="M63.7902 9.70146C63.7902 4.344 59.1525 0 53.4327 0C47.713 0 43.0752 4.344 43.0752 9.70146C43.0752 14.5435 46.8622 18.5571 51.8144 19.2856V12.5067H49.1838V9.70146H51.8144V7.56411C51.8144 5.13311 53.361 3.7892 55.7266 3.7892C56.8599 3.7892 58.0455 3.9789 58.0455 3.9789V6.36658H56.7388C55.4529 6.36658 55.0506 7.11412 55.0506 7.88244V9.70146H57.923L57.4643 12.5067H55.0511V19.2864C60.0033 18.5584 63.7902 14.5448 63.7902 9.70146Z" fill="white"/>
<path d="M108.675 3.57841C107.929 3.90229 107.14 4.11566 106.332 4.2118C107.181 3.71518 107.819 2.92623 108.127 1.99289C107.325 2.46176 106.449 2.79073 105.536 2.96573C105.151 2.56315 104.689 2.24289 104.177 2.02441C103.665 1.80594 103.113 1.6938 102.557 1.69483C100.302 1.69483 98.4778 3.49148 98.4778 5.70624C98.4762 6.01431 98.5115 6.32146 98.583 6.62113C96.9664 6.54539 95.3834 6.13329 93.9353 5.41118C92.4872 4.68908 91.2059 3.67287 90.1733 2.42757C89.811 3.03781 89.6195 3.73409 89.6186 4.44362C89.6186 5.83457 90.3448 7.06408 91.4414 7.78439C90.7917 7.76899 90.1553 7.59715 89.5863 7.28348V7.33316C89.5863 9.27884 90.9948 10.8975 92.859 11.2659C92.5084 11.3593 92.1472 11.4066 91.7844 11.4067C91.5269 11.4071 91.2701 11.3822 91.0176 11.3322C91.5358 12.926 93.0442 14.0851 94.8309 14.1182C93.3791 15.2363 91.5966 15.8406 89.7636 15.8362C89.4382 15.8357 89.1132 15.8164 88.79 15.7782C90.6547 16.9681 92.8223 17.5975 95.0348 17.5914C102.548 17.5914 106.653 11.477 106.653 6.17403C106.653 6.00016 106.648 5.82629 106.64 5.65657C107.436 5.09027 108.126 4.38654 108.675 3.57841Z" fill="white"/>
<path d="M150.278 0.620117H135.218C134.395 0.620117 133.676 1.21224 133.676 2.02551V17.1195C133.676 17.9372 134.395 18.6659 135.218 18.6659H150.274C151.101 18.6659 151.722 17.9324 151.722 17.1195V2.02551C151.726 1.21224 151.101 0.620117 150.278 0.620117ZM139.27 15.6622H136.684V7.62413H139.27V15.6622ZM138.066 6.40201H138.048C137.22 6.40201 136.685 5.78612 136.685 5.01515C136.685 4.23008 137.235 3.62869 138.08 3.62869C138.926 3.62869 139.444 4.22565 139.463 5.01515C139.462 5.78612 138.926 6.40201 138.066 6.40201ZM148.718 15.6622H146.133V11.2671C146.133 10.2142 145.756 9.49477 144.821 9.49477C144.106 9.49477 143.684 9.97814 143.495 10.449C143.425 10.6182 143.406 10.8486 143.406 11.0838V15.6622H140.821V7.62413H143.406V8.74273C143.782 8.20699 144.37 7.43602 145.737 7.43602C147.434 7.43602 148.718 8.55462 148.718 10.9662L148.718 15.6622Z" fill="white"/>
</svg>
